solid OpenSCAD_Model
  facet normal -0.980785 0.19509 0
    outer loop
      vertex -5 6.12323e-16 -0.5
      vertex -5 6.12323e-16 0.5
      vertex -4.6194 1.91342 -0.5
    endloop
  endfacet
  facet normal -0.980785 0.19509 0
    outer loop
      vertex -4.6194 1.91342 -0.5
      vertex -5 6.12323e-16 0.5
      vertex -4.6194 1.91342 0.5
    endloop
  endfacet
  facet normal -0.980785 -0.19509 0
    outer loop
      vertex -5 6.12323e-16 -0.5
      vertex -4.6194 -1.91342 -0.5
      vertex -5 6.12323e-16 0.5
    endloop
  endfacet
  facet normal -0.980785 -0.19509 0
    outer loop
      vertex -5 6.12323e-16 0.5
      vertex -4.6194 -1.91342 -0.5
      vertex -4.6194 -1.91342 0.5
    endloop
  endfacet
  facet normal 0 0 -1
    outer loop
      vertex -5 6.12323e-16 -0.5
      vertex -4.6194 1.91342 -0.5
      vertex -4.6194 -1.91342 -0.5
    endloop
  endfacet
  facet normal 0 0 -1
    outer loop
      vertex -4.6194 -1.91342 -0.5
      vertex -4.6194 1.91342 -0.5
      vertex -3.53553 3.53553 -0.5
    endloop
  endfacet
  facet normal 0 0 -1
    outer loop
      vertex -4.6194 -1.91342 -0.5
      vertex -3.53553 3.53553 -0.5
      vertex -1.91342 4.6194 -0.5
    endloop
  endfacet
  facet normal 0 0 -1
    outer loop
      vertex -4.6194 -1.91342 -0.5
      vertex -1.91342 4.6194 -0.5
      vertex 3.06162e-16 5 -0.5
    endloop
  endfacet
  facet normal 0 0 -1
    outer loop
      vertex -1.76777 1.76777 -0.5
      vertex 3.06162e-16 5 -0.5
      vertex 1.91342 4.6194 -0.5
    endloop
  endfacet
  facet normal 0 0 -1
    outer loop
      vertex 1.53081e-16 2.5 -0.5
      vertex 1.91342 4.6194 -0.5
      vertex 3.53553 3.53553 -0.5
    endloop
  endfacet
  facet normal 0 0 -1
    outer loop
      vertex 1.76777 1.76777 -0.5
      vertex 3.53553 3.53553 -0.5
      vertex 4.6194 1.91342 -0.5
    endloop
  endfacet
  facet normal 0 0 -1
    outer loop
      vertex 2.5 0 -0.5
      vertex 4.6194 1.91342 -0.5
      vertex 5 0 -0.5
    endloop
  endfacet
  facet normal 0 0 -1
    outer loop
      vertex 1.76777 -1.76777 -0.5
      vertex 5 0 -0.5
      vertex 4.6194 -1.91342 -0.5
    endloop
  endfacet
  facet normal 0 0 -1
    outer loop
      vertex -4.59243e-16 -2.5 -0.5
      vertex 4.6194 -1.91342 -0.5
      vertex 3.53553 -3.53553 -0.5
    endloop
  endfacet
  facet normal 0 0 -1
    outer loop
      vertex -4.6194 -1.91342 -0.5
      vertex 3.53553 -3.53553 -0.5
      vertex 1.91342 -4.6194 -0.5
    endloop
  endfacet
  facet normal 0 0 -1
    outer loop
      vertex -4.6194 -1.91342 -0.5
      vertex 1.91342 -4.6194 -0.5
      vertex -9.18485e-16 -5 -0.5
    endloop
  endfacet
  facet normal 0 0 -1
    outer loop
      vertex -4.6194 -1.91342 -0.5
      vertex -9.18485e-16 -5 -0.5
      vertex -1.91342 -4.6194 -0.5
    endloop
  endfacet
  facet normal 0 0 -1
    outer loop
      vertex -4.6194 -1.91342 -0.5
      vertex -1.91342 -4.6194 -0.5
      vertex -3.53553 -3.53553 -0.5
    endloop
  endfacet
  facet normal 0 0 -1
    outer loop
      vertex -1.76777 -1.76777 -0.5
      vertex -4.6194 -1.91342 -0.5
      vertex -2.5 3.06162e-16 -0.5
    endloop
  endfacet
  facet normal 0 0 -1
    outer loop
      vertex -4.59243e-16 -2.5 -0.5
      vertex -4.6194 -1.91342 -0.5
      vertex -1.76777 -1.76777 -0.5
    endloop
  endfacet
  facet normal 0 0 -1
    outer loop
      vertex 1.76777 -1.76777 -0.5
      vertex 4.6194 -1.91342 -0.5
      vertex -4.59243e-16 -2.5 -0.5
    endloop
  endfacet
  facet normal 0 0 -1
    outer loop
      vertex -4.6194 -1.91342 -0.5
      vertex -4.59243e-16 -2.5 -0.5
      vertex 3.53553 -3.53553 -0.5
    endloop
  endfacet
  facet normal 0 0 -1
    outer loop
      vertex 2.5 0 -0.5
      vertex 5 0 -0.5
      vertex 1.76777 -1.76777 -0.5
    endloop
  endfacet
  facet normal 0 0 -1
    outer loop
      vertex -1.76777 1.76777 -0.5
      vertex 1.91342 4.6194 -0.5
      vertex 1.53081e-16 2.5 -0.5
    endloop
  endfacet
  facet normal 0 0 -1
    outer loop
      vertex -4.6194 -1.91342 -0.5
      vertex 3.06162e-16 5 -0.5
      vertex -1.76777 1.76777 -0.5
    endloop
  endfacet
  facet normal 0 0 -1
    outer loop
      vertex -2.5 3.06162e-16 -0.5
      vertex -4.6194 -1.91342 -0.5
      vertex -1.76777 1.76777 -0.5
    endloop
  endfacet
  facet normal 0 0 -1
    outer loop
      vertex 1.53081e-16 2.5 -0.5
      vertex 3.53553 3.53553 -0.5
      vertex 1.76777 1.76777 -0.5
    endloop
  endfacet
  facet normal 0 0 -1
    outer loop
      vertex 1.76777 1.76777 -0.5
      vertex 4.6194 1.91342 -0.5
      vertex 2.5 0 -0.5
    endloop
  endfacet
  facet normal -0.83147 0.55557 0
    outer loop
      vertex -4.6194 1.91342 -0.5
      vertex -4.6194 1.91342 0.5
      vertex -3.53553 3.53553 -0.5
    endloop
  endfacet
  facet normal -0.83147 0.55557 0
    outer loop
      vertex -3.53553 3.53553 -0.5
      vertex -4.6194 1.91342 0.5
      vertex -3.53553 3.53553 0.5
    endloop
  endfacet
  facet normal 0 0 1
    outer loop
      vertex -4.6194 1.91342 0.5
      vertex -5 6.12323e-16 0.5
      vertex -4.6194 -1.91342 0.5
    endloop
  endfacet
  facet normal 0 0 1
    outer loop
      vertex -1.91342 -4.6194 0.5
      vertex -4.6194 1.91342 0.5
      vertex -3.53553 -3.53553 0.5
    endloop
  endfacet
  facet normal 0 0 1
    outer loop
      vertex -3.53553 -3.53553 0.5
      vertex -4.6194 1.91342 0.5
      vertex -4.6194 -1.91342 0.5
    endloop
  endfacet
  facet normal 0 0 1
    outer loop
      vertex -9.18485e-16 -5 0.5
      vertex -4.6194 1.91342 0.5
      vertex -1.91342 -4.6194 0.5
    endloop
  endfacet
  facet normal 0 0 1
    outer loop
      vertex -1.76777 -1.76777 0.5
      vertex -4.6194 1.91342 0.5
      vertex -9.18485e-16 -5 0.5
    endloop
  endfacet
  facet normal 0 0 1
    outer loop
      vertex 1.76777 -1.76777 0.5
      vertex -4.59243e-16 -2.5 0.5
      vertex 3.53553 -3.53553 0.5
    endloop
  endfacet
  facet normal 0 0 1
    outer loop
      vertex 1.76777 1.76777 0.5
      vertex 2.5 0 0.5
      vertex 5 0 0.5
    endloop
  endfacet
  facet normal 0 0 1
    outer loop
      vertex 1.91342 4.6194 0.5
      vertex -4.6194 1.91342 0.5
      vertex 3.53553 3.53553 0.5
    endloop
  endfacet
  facet normal 0 0 1
    outer loop
      vertex 3.06162e-16 5 0.5
      vertex -4.6194 1.91342 0.5
      vertex 1.91342 4.6194 0.5
    endloop
  endfacet
  facet normal 0 0 1
    outer loop
      vertex -1.91342 4.6194 0.5
      vertex -4.6194 1.91342 0.5
      vertex 3.06162e-16 5 0.5
    endloop
  endfacet
  facet normal 0 0 1
    outer loop
      vertex -3.53553 3.53553 0.5
      vertex -4.6194 1.91342 0.5
      vertex -1.91342 4.6194 0.5
    endloop
  endfacet
  facet normal 0 0 1
    outer loop
      vertex 1.91342 -4.6194 0.5
      vertex -1.76777 -1.76777 0.5
      vertex -9.18485e-16 -5 0.5
    endloop
  endfacet
  facet normal 0 0 1
    outer loop
      vertex 2.5 0 0.5
      vertex 1.76777 -1.76777 0.5
      vertex 4.6194 -1.91342 0.5
    endloop
  endfacet
  facet normal 0 0 1
    outer loop
      vertex 1.53081e-16 2.5 0.5
      vertex 1.76777 1.76777 0.5
      vertex 4.6194 1.91342 0.5
    endloop
  endfacet
  facet normal 0 0 1
    outer loop
      vertex 3.53553 3.53553 0.5
      vertex 1.53081e-16 2.5 0.5
      vertex 4.6194 1.91342 0.5
    endloop
  endfacet
  facet normal 0 0 1
    outer loop
      vertex 3.53553 3.53553 0.5
      vertex -4.6194 1.91342 0.5
      vertex 1.53081e-16 2.5 0.5
    endloop
  endfacet
  facet normal 0 0 1
    outer loop
      vertex 4.6194 1.91342 0.5
      vertex 1.76777 1.76777 0.5
      vertex 5 0 0.5
    endloop
  endfacet
  facet normal 0 0 1
    outer loop
      vertex 5 0 0.5
      vertex 2.5 0 0.5
      vertex 4.6194 -1.91342 0.5
    endloop
  endfacet
  facet normal 0 0 1
    outer loop
      vertex -1.76777 1.76777 0.5
      vertex 1.53081e-16 2.5 0.5
      vertex -4.6194 1.91342 0.5
    endloop
  endfacet
  facet normal 0 0 1
    outer loop
      vertex 4.6194 -1.91342 0.5
      vertex 1.76777 -1.76777 0.5
      vertex 3.53553 -3.53553 0.5
    endloop
  endfacet
  facet normal 0 0 1
    outer loop
      vertex 3.53553 -3.53553 0.5
      vertex -4.59243e-16 -2.5 0.5
      vertex 1.91342 -4.6194 0.5
    endloop
  endfacet
  facet normal 0 0 1
    outer loop
      vertex -1.76777 -1.76777 0.5
      vertex -2.5 3.06162e-16 0.5
      vertex -4.6194 1.91342 0.5
    endloop
  endfacet
  facet normal 0 0 1
    outer loop
      vertex -4.59243e-16 -2.5 0.5
      vertex -1.76777 -1.76777 0.5
      vertex 1.91342 -4.6194 0.5
    endloop
  endfacet
  facet normal 0 0 1
    outer loop
      vertex -2.5 3.06162e-16 0.5
      vertex -1.76777 1.76777 0.5
      vertex -4.6194 1.91342 0.5
    endloop
  endfacet
  facet normal -0.83147 -0.55557 0
    outer loop
      vertex -4.6194 -1.91342 -0.5
      vertex -3.53553 -3.53553 -0.5
      vertex -4.6194 -1.91342 0.5
    endloop
  endfacet
  facet normal -0.83147 -0.55557 0
    outer loop
      vertex -4.6194 -1.91342 0.5
      vertex -3.53553 -3.53553 -0.5
      vertex -3.53553 -3.53553 0.5
    endloop
  endfacet
  facet normal -0.55557 -0.83147 0
    outer loop
      vertex -3.53553 -3.53553 0.5
      vertex -3.53553 -3.53553 -0.5
      vertex -1.91342 -4.6194 -0.5
    endloop
  endfacet
  facet normal -0.55557 -0.83147 0
    outer loop
      vertex -1.91342 -4.6194 0.5
      vertex -3.53553 -3.53553 0.5
      vertex -1.91342 -4.6194 -0.5
    endloop
  endfacet
  facet normal -0.19509 -0.980785 0
    outer loop
      vertex -1.91342 -4.6194 0.5
      vertex -1.91342 -4.6194 -0.5
      vertex -9.18485e-16 -5 -0.5
    endloop
  endfacet
  facet normal -0.19509 -0.980785 0
    outer loop
      vertex -9.18485e-16 -5 0.5
      vertex -1.91342 -4.6194 0.5
      vertex -9.18485e-16 -5 -0.5
    endloop
  endfacet
  facet normal 0.19509 -0.980785 0
    outer loop
      vertex -9.18485e-16 -5 0.5
      vertex -9.18485e-16 -5 -0.5
      vertex 1.91342 -4.6194 -0.5
    endloop
  endfacet
  facet normal 0.19509 -0.980785 0
    outer loop
      vertex 1.91342 -4.6194 0.5
      vertex -9.18485e-16 -5 0.5
      vertex 1.91342 -4.6194 -0.5
    endloop
  endfacet
  facet normal 0.55557 -0.83147 0
    outer loop
      vertex 1.91342 -4.6194 0.5
      vertex 1.91342 -4.6194 -0.5
      vertex 3.53553 -3.53553 -0.5
    endloop
  endfacet
  facet normal 0.55557 -0.83147 0
    outer loop
      vertex 3.53553 -3.53553 0.5
      vertex 1.91342 -4.6194 0.5
      vertex 3.53553 -3.53553 -0.5
    endloop
  endfacet
  facet normal 0.83147 -0.55557 0
    outer loop
      vertex 3.53553 -3.53553 0.5
      vertex 3.53553 -3.53553 -0.5
      vertex 4.6194 -1.91342 -0.5
    endloop
  endfacet
  facet normal 0.83147 -0.55557 0
    outer loop
      vertex 4.6194 -1.91342 0.5
      vertex 3.53553 -3.53553 0.5
      vertex 4.6194 -1.91342 -0.5
    endloop
  endfacet
  facet normal 0.980785 -0.19509 0
    outer loop
      vertex 4.6194 -1.91342 0.5
      vertex 4.6194 -1.91342 -0.5
      vertex 5 0 -0.5
    endloop
  endfacet
  facet normal 0.980785 -0.19509 0
    outer loop
      vertex 5 0 0.5
      vertex 4.6194 -1.91342 0.5
      vertex 5 0 -0.5
    endloop
  endfacet
  facet normal 0.980785 0.19509 0
    outer loop
      vertex 5 0 -0.5
      vertex 4.6194 1.91342 -0.5
      vertex 4.6194 1.91342 0.5
    endloop
  endfacet
  facet normal 0.980785 0.19509 0
    outer loop
      vertex 5 0 0.5
      vertex 5 0 -0.5
      vertex 4.6194 1.91342 0.5
    endloop
  endfacet
  facet normal 0.83147 0.55557 0
    outer loop
      vertex 4.6194 1.91342 -0.5
      vertex 3.53553 3.53553 -0.5
      vertex 3.53553 3.53553 0.5
    endloop
  endfacet
  facet normal 0.83147 0.55557 0
    outer loop
      vertex 4.6194 1.91342 0.5
      vertex 4.6194 1.91342 -0.5
      vertex 3.53553 3.53553 0.5
    endloop
  endfacet
  facet normal 0.55557 0.83147 0
    outer loop
      vertex 1.91342 4.6194 -0.5
      vertex 1.91342 4.6194 0.5
      vertex 3.53553 3.53553 -0.5
    endloop
  endfacet
  facet normal 0.55557 0.83147 0
    outer loop
      vertex 3.53553 3.53553 -0.5
      vertex 1.91342 4.6194 0.5
      vertex 3.53553 3.53553 0.5
    endloop
  endfacet
  facet normal 0.19509 0.980785 0
    outer loop
      vertex 3.06162e-16 5 -0.5
      vertex 3.06162e-16 5 0.5
      vertex 1.91342 4.6194 -0.5
    endloop
  endfacet
  facet normal 0.19509 0.980785 0
    outer loop
      vertex 1.91342 4.6194 -0.5
      vertex 3.06162e-16 5 0.5
      vertex 1.91342 4.6194 0.5
    endloop
  endfacet
  facet normal -0.19509 0.980785 0
    outer loop
      vertex -1.91342 4.6194 -0.5
      vertex -1.91342 4.6194 0.5
      vertex 3.06162e-16 5 -0.5
    endloop
  endfacet
  facet normal -0.19509 0.980785 0
    outer loop
      vertex 3.06162e-16 5 -0.5
      vertex -1.91342 4.6194 0.5
      vertex 3.06162e-16 5 0.5
    endloop
  endfacet
  facet normal -0.55557 0.83147 0
    outer loop
      vertex -3.53553 3.53553 -0.5
      vertex -3.53553 3.53553 0.5
      vertex -1.91342 4.6194 -0.5
    endloop
  endfacet
  facet normal -0.55557 0.83147 0
    outer loop
      vertex -1.91342 4.6194 -0.5
      vertex -3.53553 3.53553 0.5
      vertex -1.91342 4.6194 0.5
    endloop
  endfacet
  facet normal 0.92388 0.382683 0
    outer loop
      vertex -2.5 3.06162e-16 0.5
      vertex -1.76777 -1.76777 0.5
      vertex -1.76777 -1.76777 -0.5
    endloop
  endfacet
  facet normal 0.92388 0.382683 0
    outer loop
      vertex -2.5 3.06162e-16 -0.5
      vertex -2.5 3.06162e-16 0.5
      vertex -1.76777 -1.76777 -0.5
    endloop
  endfacet
  facet normal 0.92388 -0.382683 0
    outer loop
      vertex -1.76777 1.76777 -0.5
      vertex -1.76777 1.76777 0.5
      vertex -2.5 3.06162e-16 0.5
    endloop
  endfacet
  facet normal 0.92388 -0.382683 0
    outer loop
      vertex -2.5 3.06162e-16 -0.5
      vertex -1.76777 1.76777 -0.5
      vertex -2.5 3.06162e-16 0.5
    endloop
  endfacet
  facet normal 0.382683 -0.92388 0
    outer loop
      vertex 1.53081e-16 2.5 -0.5
      vertex 1.53081e-16 2.5 0.5
      vertex -1.76777 1.76777 0.5
    endloop
  endfacet
  facet normal 0.382683 -0.92388 0
    outer loop
      vertex -1.76777 1.76777 -0.5
      vertex 1.53081e-16 2.5 -0.5
      vertex -1.76777 1.76777 0.5
    endloop
  endfacet
  facet normal -0.382683 -0.92388 0
    outer loop
      vertex 1.76777 1.76777 -0.5
      vertex 1.76777 1.76777 0.5
      vertex 1.53081e-16 2.5 0.5
    endloop
  endfacet
  facet normal -0.382683 -0.92388 0
    outer loop
      vertex 1.53081e-16 2.5 -0.5
      vertex 1.76777 1.76777 -0.5
      vertex 1.53081e-16 2.5 0.5
    endloop
  endfacet
  facet normal -0.92388 -0.382683 0
    outer loop
      vertex 2.5 0 0.5
      vertex 1.76777 1.76777 0.5
      vertex 2.5 0 -0.5
    endloop
  endfacet
  facet normal -0.92388 -0.382683 0
    outer loop
      vertex 2.5 0 -0.5
      vertex 1.76777 1.76777 0.5
      vertex 1.76777 1.76777 -0.5
    endloop
  endfacet
  facet normal -0.92388 0.382683 0
    outer loop
      vertex 2.5 0 0.5
      vertex 2.5 0 -0.5
      vertex 1.76777 -1.76777 0.5
    endloop
  endfacet
  facet normal -0.92388 0.382683 0
    outer loop
      vertex 1.76777 -1.76777 0.5
      vertex 2.5 0 -0.5
      vertex 1.76777 -1.76777 -0.5
    endloop
  endfacet
  facet normal -0.382683 0.92388 0
    outer loop
      vertex 1.76777 -1.76777 0.5
      vertex 1.76777 -1.76777 -0.5
      vertex -4.59243e-16 -2.5 0.5
    endloop
  endfacet
  facet normal -0.382683 0.92388 0
    outer loop
      vertex -4.59243e-16 -2.5 0.5
      vertex 1.76777 -1.76777 -0.5
      vertex -4.59243e-16 -2.5 -0.5
    endloop
  endfacet
  facet normal 0.382683 0.92388 0
    outer loop
      vertex -4.59243e-16 -2.5 0.5
      vertex -4.59243e-16 -2.5 -0.5
      vertex -1.76777 -1.76777 0.5
    endloop
  endfacet
  facet normal 0.382683 0.92388 0
    outer loop
      vertex -1.76777 -1.76777 0.5
      vertex -4.59243e-16 -2.5 -0.5
      vertex -1.76777 -1.76777 -0.5
    endloop
  endfacet
endsolid OpenSCAD_Model
