<?xml version="1.0" encoding="UTF-8" standalone="no"?>
<!-- Created with Inkscape (http://www.inkscape.org/) -->

<svg
   xmlns:dc="http://purl.org/dc/elements/1.1/"
   xmlns:cc="http://creativecommons.org/ns#"
   xmlns:rdf="http://www.w3.org/1999/02/22-rdf-syntax-ns#"
   xmlns:svg="http://www.w3.org/2000/svg"
   xmlns="http://www.w3.org/2000/svg"
   xmlns:sodipodi="http://sodipodi.sourceforge.net/DTD/sodipodi-0.dtd"
   xmlns:inkscape="http://www.inkscape.org/namespaces/inkscape"
   width="100mm"
   height="100mm"
   viewBox="0 0 354.33071 354.33071"
   id="svg2"
   version="1.1"
   inkscape:version="0.91 r13725"
   sodipodi:docname="small plate - path.svg">
  <defs
     id="defs4" />
  <sodipodi:namedview
     id="base"
     pagecolor="#ffffff"
     bordercolor="#666666"
     borderopacity="1.0"
     inkscape:pageopacity="0.0"
     inkscape:pageshadow="2"
     inkscape:zoom="1.8429111"
     inkscape:cx="177.16535"
     inkscape:cy="177.16535"
     inkscape:document-units="mm"
     inkscape:current-layer="layer1"
     showgrid="false"
     inkscape:window-width="1405"
     inkscape:window-height="855"
     inkscape:window-x="35"
     inkscape:window-y="0"
     inkscape:window-maximized="1" />
  <metadata
     id="metadata7">
    <rdf:RDF>
      <cc:Work
         rdf:about="">
        <dc:format>image/svg+xml</dc:format>
        <dc:type
           rdf:resource="http://purl.org/dc/dcmitype/StillImage" />
        <dc:title></dc:title>
      </cc:Work>
    </rdf:RDF>
  </metadata>
  <g
     inkscape:label="Layer 1"
     inkscape:groupmode="layer"
     id="layer1"
     transform="translate(0,-698.0315)">
    <path
       style="opacity:0.831;fill:none;fill-opacity:1;stroke:#000000;stroke-width:1;stroke-linecap:square;stroke-linejoin:miter;stroke-miterlimit:20;stroke-dasharray:none;stroke-dashoffset:0;stroke-opacity:1"
       d="m 8.8894279,769.30774 265.6857221,0 c 4.69755,0 8.47933,3.78178 8.47933,8.47933 l 0,265.68573 c 0,4.6975 -3.78178,8.4793 -8.47933,8.4793 l -265.6857221,0 c -4.6975483,0 -8.47932908,-3.7818 -8.47932908,-8.4793 l 0,-265.68573 c 0,-4.69755 3.78178078,-8.47933 8.47932908,-8.47933 z"
       id="rect4136" />
    <path
       style="opacity:0.831;fill:none;fill-opacity:1;stroke:#000000;stroke-width:1;stroke-linecap:square;stroke-linejoin:miter;stroke-miterlimit:20;stroke-dasharray:none;stroke-dashoffset:0;stroke-opacity:1"
       d="m 42.26955,1016.9291 a 6.8364787,6.8364782 0 0 1 -6.836479,6.8365 6.8364787,6.8364782 0 0 1 -6.836479,-6.8365 6.8364787,6.8364782 0 0 1 6.836479,-6.8365 6.8364787,6.8364782 0 0 1 6.836479,6.8365 z"
       id="path4138" />
    <path
       style="opacity:0.831;fill:none;fill-opacity:1;stroke:#000000;stroke-width:1;stroke-linecap:square;stroke-linejoin:miter;stroke-miterlimit:20;stroke-dasharray:none;stroke-dashoffset:0;stroke-opacity:1"
       d="m 113.13569,1016.9291 a 6.8364787,6.8364782 0 0 1 -6.83648,6.8365 6.8364787,6.8364782 0 0 1 -6.836479,-6.8365 6.8364787,6.8364782 0 0 1 6.836479,-6.8365 6.8364787,6.8364782 0 0 1 6.83648,6.8365 z"
       id="ellipse4140" />
    <path
       style="opacity:0.831;fill:none;fill-opacity:1;stroke:#000000;stroke-width:1;stroke-linecap:square;stroke-linejoin:miter;stroke-miterlimit:20;stroke-dasharray:none;stroke-dashoffset:0;stroke-opacity:1"
       d="m 42.26955,946.06305 a 6.8364787,6.8364782 0 0 1 -6.836479,6.83648 6.8364787,6.8364782 0 0 1 -6.836479,-6.83648 6.8364787,6.8364782 0 0 1 6.836479,-6.83648 6.8364787,6.8364782 0 0 1 6.836479,6.83648 z"
       id="ellipse4142" />
    <path
       style="opacity:0.831;fill:none;fill-opacity:1;stroke:#000000;stroke-width:1;stroke-linecap:square;stroke-linejoin:miter;stroke-miterlimit:20;stroke-dasharray:none;stroke-dashoffset:0;stroke-opacity:1"
       d="m 113.13569,946.06305 a 6.8364787,6.8364782 0 0 1 -6.83648,6.83648 6.8364787,6.8364782 0 0 1 -6.836479,-6.83648 6.8364787,6.8364782 0 0 1 6.836479,-6.83648 6.8364787,6.8364782 0 0 1 6.83648,6.83648 z"
       id="ellipse4144" />
    <path
       style="opacity:0.831;fill:none;fill-opacity:1;stroke:#000000;stroke-width:1;stroke-linecap:square;stroke-linejoin:miter;stroke-miterlimit:20;stroke-dasharray:none;stroke-dashoffset:0;stroke-opacity:1"
       d="m 42.26955,875.1969 a 6.8364787,6.8364782 0 0 1 -6.836479,6.83648 6.8364787,6.8364782 0 0 1 -6.836479,-6.83648 6.8364787,6.8364782 0 0 1 6.836479,-6.83648 6.8364787,6.8364782 0 0 1 6.836479,6.83648 z"
       id="ellipse4146" />
    <path
       style="opacity:0.831;fill:none;fill-opacity:1;stroke:#000000;stroke-width:1;stroke-linecap:square;stroke-linejoin:miter;stroke-miterlimit:20;stroke-dasharray:none;stroke-dashoffset:0;stroke-opacity:1"
       d="m 113.13569,875.1969 a 6.8364787,6.8364782 0 0 1 -6.83648,6.83648 6.8364787,6.8364782 0 0 1 -6.836479,-6.83648 6.8364787,6.8364782 0 0 1 6.836479,-6.83648 6.8364787,6.8364782 0 0 1 6.83648,6.83648 z"
       id="ellipse4148" />
    <path
       style="opacity:0.831;fill:none;fill-opacity:1;stroke:#000000;stroke-width:1;stroke-linecap:square;stroke-linejoin:miter;stroke-miterlimit:20;stroke-dasharray:none;stroke-dashoffset:0;stroke-opacity:1"
       d="m 42.26955,804.33075 a 6.8364787,6.8364782 0 0 1 -6.836479,6.83648 6.8364787,6.8364782 0 0 1 -6.836479,-6.83648 6.8364787,6.8364782 0 0 1 6.836479,-6.83648 6.8364787,6.8364782 0 0 1 6.836479,6.83648 z"
       id="ellipse4150" />
    <path
       style="opacity:0.831;fill:none;fill-opacity:1;stroke:#000000;stroke-width:1;stroke-linecap:square;stroke-linejoin:miter;stroke-miterlimit:20;stroke-dasharray:none;stroke-dashoffset:0;stroke-opacity:1"
       d="m 113.13569,804.33075 a 6.8364787,6.8364782 0 0 1 -6.83648,6.83648 6.8364787,6.8364782 0 0 1 -6.836479,-6.83648 6.8364787,6.8364782 0 0 1 6.836479,-6.83648 6.8364787,6.8364782 0 0 1 6.83648,6.83648 z"
       id="ellipse4152" />
    <path
       style="opacity:0.831;fill:none;fill-opacity:1;stroke:#000000;stroke-width:1;stroke-linecap:square;stroke-linejoin:miter;stroke-miterlimit:20;stroke-dasharray:none;stroke-dashoffset:0;stroke-opacity:1"
       d="m 261.70445,1016.9291 a 13.672956,13.672956 0 0 1 -13.67296,13.6729 13.672956,13.672956 0 0 1 -13.67295,-13.6729 13.672956,13.672956 0 0 1 13.67295,-13.673 13.672956,13.672956 0 0 1 13.67296,13.673 z"
       id="ellipse4158" />
    <path
       style="opacity:0.831;fill:none;fill-opacity:1;stroke:#000000;stroke-width:1;stroke-linecap:square;stroke-linejoin:miter;stroke-miterlimit:20;stroke-dasharray:none;stroke-dashoffset:0;stroke-opacity:1"
       d="m 261.70445,946.06305 a 13.672956,13.672956 0 0 1 -13.67296,13.67296 13.672956,13.672956 0 0 1 -13.67295,-13.67296 13.672956,13.672956 0 0 1 13.67295,-13.67296 13.672956,13.672956 0 0 1 13.67296,13.67296 z"
       id="ellipse4160" />
    <path
       style="opacity:0.831;fill:none;fill-opacity:1;stroke:#000000;stroke-width:1;stroke-linecap:square;stroke-linejoin:miter;stroke-miterlimit:20;stroke-dasharray:none;stroke-dashoffset:0;stroke-opacity:1"
       d="m 261.70445,875.1969 a 13.672956,13.672956 0 0 1 -13.67296,13.67296 13.672956,13.672956 0 0 1 -13.67295,-13.67296 13.672956,13.672956 0 0 1 13.67295,-13.67296 13.672956,13.672956 0 0 1 13.67296,13.67296 z"
       id="ellipse4162" />
    <path
       style="opacity:0.831;fill:none;fill-opacity:1;stroke:#000000;stroke-width:1;stroke-linecap:square;stroke-linejoin:miter;stroke-miterlimit:20;stroke-dasharray:none;stroke-dashoffset:0;stroke-opacity:1"
       d="m 261.70445,804.33075 a 13.672956,13.672956 0 0 1 -13.67296,13.67296 13.672956,13.672956 0 0 1 -13.67295,-13.67296 13.672956,13.672956 0 0 1 13.67295,-13.67296 13.672956,13.672956 0 0 1 13.67296,13.67296 z"
       id="ellipse4164" />
  </g>
</svg>
