solid OpenSCAD_Model
  facet normal 0.995185 0.0980177 0
    outer loop
      vertex 5 0 0.5
      vertex 4.90393 0.975451 -0.5
      vertex 4.90393 0.975451 0.5
    endloop
  endfacet
  facet normal 0.995185 0.0980177 0
    outer loop
      vertex 4.90393 0.975451 -0.5
      vertex 5 0 0.5
      vertex 5 0 -0.5
    endloop
  endfacet
  facet normal -0.995185 0.0980177 0
    outer loop
      vertex -5 0 -0.5
      vertex -4.90393 0.975451 0.5
      vertex -4.90393 0.975451 -0.5
    endloop
  endfacet
  facet normal -0.995185 0.0980177 0
    outer loop
      vertex -4.90393 0.975451 0.5
      vertex -5 0 -0.5
      vertex -5 0 0.5
    endloop
  endfacet
  facet normal 0.0980177 0.995185 -0
    outer loop
      vertex 0.975451 4.90393 -0.5
      vertex 0 5 0.5
      vertex 0.975451 4.90393 0.5
    endloop
  endfacet
  facet normal 0.0980177 0.995185 0
    outer loop
      vertex 0 5 0.5
      vertex 0.975451 4.90393 -0.5
      vertex 0 5 -0.5
    endloop
  endfacet
  facet normal -0.0980177 -0.995185 0
    outer loop
      vertex -0.975451 -4.90393 -0.5
      vertex 0 -5 0.5
      vertex -0.975451 -4.90393 0.5
    endloop
  endfacet
  facet normal -0.0980177 -0.995185 -0
    outer loop
      vertex 0 -5 0.5
      vertex -0.975451 -4.90393 -0.5
      vertex 0 -5 -0.5
    endloop
  endfacet
  facet normal -0.773011 -0.634393 0
    outer loop
      vertex -3.53553 -3.53553 -0.5
      vertex -4.15735 -2.77785 0.5
      vertex -4.15735 -2.77785 -0.5
    endloop
  endfacet
  facet normal -0.773011 -0.634393 0
    outer loop
      vertex -4.15735 -2.77785 0.5
      vertex -3.53553 -3.53553 -0.5
      vertex -3.53553 -3.53553 0.5
    endloop
  endfacet
  facet normal 0.773011 0.634393 0
    outer loop
      vertex 4.15735 2.77785 0.5
      vertex 3.53553 3.53553 -0.5
      vertex 3.53553 3.53553 0.5
    endloop
  endfacet
  facet normal 0.773011 0.634393 0
    outer loop
      vertex 3.53553 3.53553 -0.5
      vertex 4.15735 2.77785 0.5
      vertex 4.15735 2.77785 -0.5
    endloop
  endfacet
  facet normal -0.634393 0.773011 0
    outer loop
      vertex -2.77785 4.15735 -0.5
      vertex -3.53553 3.53553 0.5
      vertex -2.77785 4.15735 0.5
    endloop
  endfacet
  facet normal -0.634393 0.773011 0
    outer loop
      vertex -3.53553 3.53553 0.5
      vertex -2.77785 4.15735 -0.5
      vertex -3.53553 3.53553 -0.5
    endloop
  endfacet
  facet normal -0.290285 0.95694 0
    outer loop
      vertex -0.975451 4.90393 -0.5
      vertex -1.91342 4.6194 0.5
      vertex -0.975451 4.90393 0.5
    endloop
  endfacet
  facet normal -0.290285 0.95694 0
    outer loop
      vertex -1.91342 4.6194 0.5
      vertex -0.975451 4.90393 -0.5
      vertex -1.91342 4.6194 -0.5
    endloop
  endfacet
  facet normal 0.634393 -0.773011 0
    outer loop
      vertex 2.77785 -4.15735 -0.5
      vertex 3.53553 -3.53553 0.5
      vertex 2.77785 -4.15735 0.5
    endloop
  endfacet
  facet normal 0.634393 -0.773011 0
    outer loop
      vertex 3.53553 -3.53553 0.5
      vertex 2.77785 -4.15735 -0.5
      vertex 3.53553 -3.53553 -0.5
    endloop
  endfacet
  facet normal 0 0 -1
    outer loop
      vertex 2.5 0 -0.5
      vertex 5 0 -0.5
      vertex 4.90393 -0.975451 -0.5
    endloop
  endfacet
  facet normal 0 0 -1
    outer loop
      vertex 2.45196 -0.487725 -0.5
      vertex 4.90393 -0.975451 -0.5
      vertex 4.6194 -1.91342 -0.5
    endloop
  endfacet
  facet normal 0 0 -1
    outer loop
      vertex 5 0 -0.5
      vertex 2.5 0 -0.5
      vertex 4.90393 0.975451 -0.5
    endloop
  endfacet
  facet normal 0 0 -1
    outer loop
      vertex 2.3097 -0.956708 -0.5
      vertex 4.6194 -1.91342 -0.5
      vertex 4.15735 -2.77785 -0.5
    endloop
  endfacet
  facet normal 0 0 -1
    outer loop
      vertex 2.45196 0.487725 -0.5
      vertex 4.90393 0.975451 -0.5
      vertex 2.5 0 -0.5
    endloop
  endfacet
  facet normal 0 0 -1
    outer loop
      vertex 2.07867 -1.38893 -0.5
      vertex 4.15735 -2.77785 -0.5
      vertex 3.53553 -3.53553 -0.5
    endloop
  endfacet
  facet normal -0 0 -1
    outer loop
      vertex 4.90393 0.975451 -0.5
      vertex 2.45196 0.487725 -0.5
      vertex 4.6194 1.91342 -0.5
    endloop
  endfacet
  facet normal 0 0 -1
    outer loop
      vertex 1.76777 -1.76777 -0.5
      vertex 3.53553 -3.53553 -0.5
      vertex 2.77785 -4.15735 -0.5
    endloop
  endfacet
  facet normal 0 0 -1
    outer loop
      vertex 2.3097 0.956708 -0.5
      vertex 4.6194 1.91342 -0.5
      vertex 2.45196 0.487725 -0.5
    endloop
  endfacet
  facet normal -0 0 -1
    outer loop
      vertex 4.6194 1.91342 -0.5
      vertex 2.3097 0.956708 -0.5
      vertex 4.15735 2.77785 -0.5
    endloop
  endfacet
  facet normal 0 0 -1
    outer loop
      vertex 4.90393 -0.975451 -0.5
      vertex 2.45196 -0.487725 -0.5
      vertex 2.5 0 -0.5
    endloop
  endfacet
  facet normal 0 0 -1
    outer loop
      vertex 4.6194 -1.91342 -0.5
      vertex 2.3097 -0.956708 -0.5
      vertex 2.45196 -0.487725 -0.5
    endloop
  endfacet
  facet normal 0 0 -1
    outer loop
      vertex 4.15735 -2.77785 -0.5
      vertex 2.07867 -1.38893 -0.5
      vertex 2.3097 -0.956708 -0.5
    endloop
  endfacet
  facet normal 0 0 -1
    outer loop
      vertex 1.38893 -2.07867 -0.5
      vertex 2.77785 -4.15735 -0.5
      vertex 1.91342 -4.6194 -0.5
    endloop
  endfacet
  facet normal 0 0 -1
    outer loop
      vertex 3.53553 -3.53553 -0.5
      vertex 1.76777 -1.76777 -0.5
      vertex 2.07867 -1.38893 -0.5
    endloop
  endfacet
  facet normal 0 0 -1
    outer loop
      vertex 2.77785 -4.15735 -0.5
      vertex 1.38893 -2.07867 -0.5
      vertex 1.76777 -1.76777 -0.5
    endloop
  endfacet
  facet normal 0 0 -1
    outer loop
      vertex 0.956708 -2.3097 -0.5
      vertex 1.91342 -4.6194 -0.5
      vertex 0.975451 -4.90393 -0.5
    endloop
  endfacet
  facet normal 0 0 -1
    outer loop
      vertex 1.91342 -4.6194 -0.5
      vertex 0.956708 -2.3097 -0.5
      vertex 1.38893 -2.07867 -0.5
    endloop
  endfacet
  facet normal 0 0 -1
    outer loop
      vertex 0.975451 -4.90393 -0.5
      vertex 0.487725 -2.45196 -0.5
      vertex 0.956708 -2.3097 -0.5
    endloop
  endfacet
  facet normal 0 0 -1
    outer loop
      vertex 0 -5 -0.5
      vertex 0.487725 -2.45196 -0.5
      vertex 0.975451 -4.90393 -0.5
    endloop
  endfacet
  facet normal 0 0 -1
    outer loop
      vertex 0 -5 -0.5
      vertex 0 -2.5 -0.5
      vertex 0.487725 -2.45196 -0.5
    endloop
  endfacet
  facet normal 0 0 -1
    outer loop
      vertex 0 -5 -0.5
      vertex -0.487725 -2.45196 -0.5
      vertex 0 -2.5 -0.5
    endloop
  endfacet
  facet normal 0 0 -1
    outer loop
      vertex -0.975451 -4.90393 -0.5
      vertex -0.487725 -2.45196 -0.5
      vertex 0 -5 -0.5
    endloop
  endfacet
  facet normal -0 0 -1
    outer loop
      vertex -0.487725 -2.45196 -0.5
      vertex -0.975451 -4.90393 -0.5
      vertex -0.956708 -2.3097 -0.5
    endloop
  endfacet
  facet normal 0 0 -1
    outer loop
      vertex -1.91342 -4.6194 -0.5
      vertex -0.956708 -2.3097 -0.5
      vertex -0.975451 -4.90393 -0.5
    endloop
  endfacet
  facet normal -0 0 -1
    outer loop
      vertex -0.956708 -2.3097 -0.5
      vertex -1.91342 -4.6194 -0.5
      vertex -1.38893 -2.07867 -0.5
    endloop
  endfacet
  facet normal 0 0 -1
    outer loop
      vertex -2.77785 -4.15735 -0.5
      vertex -1.38893 -2.07867 -0.5
      vertex -1.91342 -4.6194 -0.5
    endloop
  endfacet
  facet normal -0 0 -1
    outer loop
      vertex -1.38893 -2.07867 -0.5
      vertex -2.77785 -4.15735 -0.5
      vertex -1.76777 -1.76777 -0.5
    endloop
  endfacet
  facet normal 0 0 -1
    outer loop
      vertex -3.53553 -3.53553 -0.5
      vertex -1.76777 -1.76777 -0.5
      vertex -2.77785 -4.15735 -0.5
    endloop
  endfacet
  facet normal -0 0 -1
    outer loop
      vertex -1.76777 -1.76777 -0.5
      vertex -3.53553 -3.53553 -0.5
      vertex -2.07867 -1.38893 -0.5
    endloop
  endfacet
  facet normal -0 0 -1
    outer loop
      vertex -2.07867 -1.38893 -0.5
      vertex -4.15735 -2.77785 -0.5
      vertex -2.3097 -0.956708 -0.5
    endloop
  endfacet
  facet normal 0 0 -1
    outer loop
      vertex -4.15735 -2.77785 -0.5
      vertex -2.07867 -1.38893 -0.5
      vertex -3.53553 -3.53553 -0.5
    endloop
  endfacet
  facet normal 0 0 -1
    outer loop
      vertex 2.07867 1.38893 -0.5
      vertex 4.15735 2.77785 -0.5
      vertex 2.3097 0.956708 -0.5
    endloop
  endfacet
  facet normal -0 0 -1
    outer loop
      vertex 4.15735 2.77785 -0.5
      vertex 2.07867 1.38893 -0.5
      vertex 3.53553 3.53553 -0.5
    endloop
  endfacet
  facet normal 0 0 -1
    outer loop
      vertex 1.76777 1.76777 -0.5
      vertex 3.53553 3.53553 -0.5
      vertex 2.07867 1.38893 -0.5
    endloop
  endfacet
  facet normal -0 0 -1
    outer loop
      vertex 3.53553 3.53553 -0.5
      vertex 1.76777 1.76777 -0.5
      vertex 2.77785 4.15735 -0.5
    endloop
  endfacet
  facet normal 0 0 -1
    outer loop
      vertex 1.38893 2.07867 -0.5
      vertex 2.77785 4.15735 -0.5
      vertex 1.76777 1.76777 -0.5
    endloop
  endfacet
  facet normal -0 0 -1
    outer loop
      vertex 2.77785 4.15735 -0.5
      vertex 1.38893 2.07867 -0.5
      vertex 1.91342 4.6194 -0.5
    endloop
  endfacet
  facet normal 0 0 -1
    outer loop
      vertex 0.956708 2.3097 -0.5
      vertex 1.91342 4.6194 -0.5
      vertex 1.38893 2.07867 -0.5
    endloop
  endfacet
  facet normal -0 0 -1
    outer loop
      vertex 1.91342 4.6194 -0.5
      vertex 0.956708 2.3097 -0.5
      vertex 0.975451 4.90393 -0.5
    endloop
  endfacet
  facet normal 0 0 -1
    outer loop
      vertex 0.487725 2.45196 -0.5
      vertex 0.975451 4.90393 -0.5
      vertex 0.956708 2.3097 -0.5
    endloop
  endfacet
  facet normal 0 0 -1
    outer loop
      vertex 0 2.5 -0.5
      vertex 0.975451 4.90393 -0.5
      vertex 0.487725 2.45196 -0.5
    endloop
  endfacet
  facet normal 0 0 -1
    outer loop
      vertex 0 2.5 -0.5
      vertex 0 5 -0.5
      vertex 0.975451 4.90393 -0.5
    endloop
  endfacet
  facet normal 0 0 -1
    outer loop
      vertex -0.487725 2.45196 -0.5
      vertex 0 5 -0.5
      vertex 0 2.5 -0.5
    endloop
  endfacet
  facet normal 0 0 -1
    outer loop
      vertex -0.975451 4.90393 -0.5
      vertex -0.487725 2.45196 -0.5
      vertex -0.956708 2.3097 -0.5
    endloop
  endfacet
  facet normal 0 0 -1
    outer loop
      vertex -0.487725 2.45196 -0.5
      vertex -0.975451 4.90393 -0.5
      vertex 0 5 -0.5
    endloop
  endfacet
  facet normal 0 0 -1
    outer loop
      vertex -1.91342 4.6194 -0.5
      vertex -0.956708 2.3097 -0.5
      vertex -1.38893 2.07867 -0.5
    endloop
  endfacet
  facet normal 0 0 -1
    outer loop
      vertex -2.77785 4.15735 -0.5
      vertex -1.38893 2.07867 -0.5
      vertex -1.76777 1.76777 -0.5
    endloop
  endfacet
  facet normal 0 0 -1
    outer loop
      vertex -0.956708 2.3097 -0.5
      vertex -1.91342 4.6194 -0.5
      vertex -0.975451 4.90393 -0.5
    endloop
  endfacet
  facet normal 0 0 -1
    outer loop
      vertex -3.53553 3.53553 -0.5
      vertex -1.76777 1.76777 -0.5
      vertex -2.07867 1.38893 -0.5
    endloop
  endfacet
  facet normal 0 0 -1
    outer loop
      vertex -4.15735 2.77785 -0.5
      vertex -2.07867 1.38893 -0.5
      vertex -2.3097 0.956708 -0.5
    endloop
  endfacet
  facet normal 0 0 -1
    outer loop
      vertex -4.6194 1.91342 -0.5
      vertex -2.3097 0.956708 -0.5
      vertex -2.45196 0.487725 -0.5
    endloop
  endfacet
  facet normal 0 0 -1
    outer loop
      vertex -1.38893 2.07867 -0.5
      vertex -2.77785 4.15735 -0.5
      vertex -1.91342 4.6194 -0.5
    endloop
  endfacet
  facet normal 0 0 -1
    outer loop
      vertex -4.90393 0.975451 -0.5
      vertex -2.45196 0.487725 -0.5
      vertex -2.5 0 -0.5
    endloop
  endfacet
  facet normal 0 0 -1
    outer loop
      vertex -4.6194 -1.91342 -0.5
      vertex -2.3097 -0.956708 -0.5
      vertex -4.15735 -2.77785 -0.5
    endloop
  endfacet
  facet normal -0 0 -1
    outer loop
      vertex -2.3097 -0.956708 -0.5
      vertex -4.6194 -1.91342 -0.5
      vertex -2.45196 -0.487725 -0.5
    endloop
  endfacet
  facet normal 0 0 -1
    outer loop
      vertex -1.76777 1.76777 -0.5
      vertex -3.53553 3.53553 -0.5
      vertex -2.77785 4.15735 -0.5
    endloop
  endfacet
  facet normal 0 0 -1
    outer loop
      vertex -4.90393 -0.975451 -0.5
      vertex -2.45196 -0.487725 -0.5
      vertex -4.6194 -1.91342 -0.5
    endloop
  endfacet
  facet normal 0 0 -1
    outer loop
      vertex -2.07867 1.38893 -0.5
      vertex -4.15735 2.77785 -0.5
      vertex -3.53553 3.53553 -0.5
    endloop
  endfacet
  facet normal -0 0 -1
    outer loop
      vertex -2.45196 -0.487725 -0.5
      vertex -4.90393 -0.975451 -0.5
      vertex -2.5 0 -0.5
    endloop
  endfacet
  facet normal 0 0 -1
    outer loop
      vertex -2.3097 0.956708 -0.5
      vertex -4.6194 1.91342 -0.5
      vertex -4.15735 2.77785 -0.5
    endloop
  endfacet
  facet normal 0 0 -1
    outer loop
      vertex -5 0 -0.5
      vertex -2.5 0 -0.5
      vertex -4.90393 -0.975451 -0.5
    endloop
  endfacet
  facet normal 0 0 -1
    outer loop
      vertex -2.45196 0.487725 -0.5
      vertex -4.90393 0.975451 -0.5
      vertex -4.6194 1.91342 -0.5
    endloop
  endfacet
  facet normal 0 0 -1
    outer loop
      vertex -2.5 0 -0.5
      vertex -5 0 -0.5
      vertex -4.90393 0.975451 -0.5
    endloop
  endfacet
  facet normal 0.881921 0.471397 0
    outer loop
      vertex 4.6194 1.91342 0.5
      vertex 4.15735 2.77785 -0.5
      vertex 4.15735 2.77785 0.5
    endloop
  endfacet
  facet normal 0.881921 0.471397 0
    outer loop
      vertex 4.15735 2.77785 -0.5
      vertex 4.6194 1.91342 0.5
      vertex 4.6194 1.91342 -0.5
    endloop
  endfacet
  facet normal 0.95694 0.290285 0
    outer loop
      vertex 4.90393 0.975451 0.5
      vertex 4.6194 1.91342 -0.5
      vertex 4.6194 1.91342 0.5
    endloop
  endfacet
  facet normal 0.95694 0.290285 0
    outer loop
      vertex 4.6194 1.91342 -0.5
      vertex 4.90393 0.975451 0.5
      vertex 4.90393 0.975451 -0.5
    endloop
  endfacet
  facet normal 0.471397 0.881921 -0
    outer loop
      vertex 2.77785 4.15735 -0.5
      vertex 1.91342 4.6194 0.5
      vertex 2.77785 4.15735 0.5
    endloop
  endfacet
  facet normal 0.471397 0.881921 0
    outer loop
      vertex 1.91342 4.6194 0.5
      vertex 2.77785 4.15735 -0.5
      vertex 1.91342 4.6194 -0.5
    endloop
  endfacet
  facet normal 0.290285 0.95694 -0
    outer loop
      vertex 1.91342 4.6194 -0.5
      vertex 0.975451 4.90393 0.5
      vertex 1.91342 4.6194 0.5
    endloop
  endfacet
  facet normal 0.290285 0.95694 0
    outer loop
      vertex 0.975451 4.90393 0.5
      vertex 1.91342 4.6194 -0.5
      vertex 0.975451 4.90393 -0.5
    endloop
  endfacet
  facet normal 0.634393 0.773011 -0
    outer loop
      vertex 3.53553 3.53553 -0.5
      vertex 2.77785 4.15735 0.5
      vertex 3.53553 3.53553 0.5
    endloop
  endfacet
  facet normal 0.634393 0.773011 0
    outer loop
      vertex 2.77785 4.15735 0.5
      vertex 3.53553 3.53553 -0.5
      vertex 2.77785 4.15735 -0.5
    endloop
  endfacet
  facet normal -0.881921 0.471397 0
    outer loop
      vertex -4.6194 1.91342 -0.5
      vertex -4.15735 2.77785 0.5
      vertex -4.15735 2.77785 -0.5
    endloop
  endfacet
  facet normal -0.881921 0.471397 0
    outer loop
      vertex -4.15735 2.77785 0.5
      vertex -4.6194 1.91342 -0.5
      vertex -4.6194 1.91342 0.5
    endloop
  endfacet
  facet normal -0.773011 0.634393 0
    outer loop
      vertex -4.15735 2.77785 -0.5
      vertex -3.53553 3.53553 0.5
      vertex -3.53553 3.53553 -0.5
    endloop
  endfacet
  facet normal -0.773011 0.634393 0
    outer loop
      vertex -3.53553 3.53553 0.5
      vertex -4.15735 2.77785 -0.5
      vertex -4.15735 2.77785 0.5
    endloop
  endfacet
  facet normal -0.95694 0.290285 0
    outer loop
      vertex -4.90393 0.975451 -0.5
      vertex -4.6194 1.91342 0.5
      vertex -4.6194 1.91342 -0.5
    endloop
  endfacet
  facet normal -0.95694 0.290285 0
    outer loop
      vertex -4.6194 1.91342 0.5
      vertex -4.90393 0.975451 -0.5
      vertex -4.90393 0.975451 0.5
    endloop
  endfacet
  facet normal 0 0 1
    outer loop
      vertex 2.5 0 0.5
      vertex 5 0 0.5
      vertex 4.90393 0.975451 0.5
    endloop
  endfacet
  facet normal 0 0 1
    outer loop
      vertex 2.45196 0.487725 0.5
      vertex 4.90393 0.975451 0.5
      vertex 4.6194 1.91342 0.5
    endloop
  endfacet
  facet normal 0 0 1
    outer loop
      vertex 5 0 0.5
      vertex 2.5 0 0.5
      vertex 4.90393 -0.975451 0.5
    endloop
  endfacet
  facet normal 0 0 1
    outer loop
      vertex 2.3097 0.956708 0.5
      vertex 4.6194 1.91342 0.5
      vertex 4.15735 2.77785 0.5
    endloop
  endfacet
  facet normal -0 0 1
    outer loop
      vertex 2.45196 -0.487725 0.5
      vertex 4.90393 -0.975451 0.5
      vertex 2.5 0 0.5
    endloop
  endfacet
  facet normal 0 0 1
    outer loop
      vertex 2.07867 1.38893 0.5
      vertex 4.15735 2.77785 0.5
      vertex 3.53553 3.53553 0.5
    endloop
  endfacet
  facet normal 0 0 1
    outer loop
      vertex 4.90393 -0.975451 0.5
      vertex 2.45196 -0.487725 0.5
      vertex 4.6194 -1.91342 0.5
    endloop
  endfacet
  facet normal 0 0 1
    outer loop
      vertex 1.76777 1.76777 0.5
      vertex 3.53553 3.53553 0.5
      vertex 2.77785 4.15735 0.5
    endloop
  endfacet
  facet normal -0 0 1
    outer loop
      vertex 2.3097 -0.956708 0.5
      vertex 4.6194 -1.91342 0.5
      vertex 2.45196 -0.487725 0.5
    endloop
  endfacet
  facet normal 0 0 1
    outer loop
      vertex 4.6194 -1.91342 0.5
      vertex 2.3097 -0.956708 0.5
      vertex 4.15735 -2.77785 0.5
    endloop
  endfacet
  facet normal 0 0 1
    outer loop
      vertex 4.90393 0.975451 0.5
      vertex 2.45196 0.487725 0.5
      vertex 2.5 0 0.5
    endloop
  endfacet
  facet normal 0 0 1
    outer loop
      vertex 4.6194 1.91342 0.5
      vertex 2.3097 0.956708 0.5
      vertex 2.45196 0.487725 0.5
    endloop
  endfacet
  facet normal 0 0 1
    outer loop
      vertex 4.15735 2.77785 0.5
      vertex 2.07867 1.38893 0.5
      vertex 2.3097 0.956708 0.5
    endloop
  endfacet
  facet normal 0 0 1
    outer loop
      vertex 1.38893 2.07867 0.5
      vertex 2.77785 4.15735 0.5
      vertex 1.91342 4.6194 0.5
    endloop
  endfacet
  facet normal 0 0 1
    outer loop
      vertex 3.53553 3.53553 0.5
      vertex 1.76777 1.76777 0.5
      vertex 2.07867 1.38893 0.5
    endloop
  endfacet
  facet normal 0 0 1
    outer loop
      vertex 2.77785 4.15735 0.5
      vertex 1.38893 2.07867 0.5
      vertex 1.76777 1.76777 0.5
    endloop
  endfacet
  facet normal 0 0 1
    outer loop
      vertex 0.956708 2.3097 0.5
      vertex 1.91342 4.6194 0.5
      vertex 0.975451 4.90393 0.5
    endloop
  endfacet
  facet normal 0 0 1
    outer loop
      vertex 1.91342 4.6194 0.5
      vertex 0.956708 2.3097 0.5
      vertex 1.38893 2.07867 0.5
    endloop
  endfacet
  facet normal 0 0 1
    outer loop
      vertex 0.975451 4.90393 0.5
      vertex 0.487725 2.45196 0.5
      vertex 0.956708 2.3097 0.5
    endloop
  endfacet
  facet normal 0 0 1
    outer loop
      vertex 0 5 0.5
      vertex 0.487725 2.45196 0.5
      vertex 0.975451 4.90393 0.5
    endloop
  endfacet
  facet normal 0 0 1
    outer loop
      vertex 0 5 0.5
      vertex 0 2.5 0.5
      vertex 0.487725 2.45196 0.5
    endloop
  endfacet
  facet normal 0 0 1
    outer loop
      vertex 0 5 0.5
      vertex -0.487725 2.45196 0.5
      vertex 0 2.5 0.5
    endloop
  endfacet
  facet normal -0 0 1
    outer loop
      vertex -0.975451 4.90393 0.5
      vertex -0.487725 2.45196 0.5
      vertex 0 5 0.5
    endloop
  endfacet
  facet normal 0 0 1
    outer loop
      vertex -0.487725 2.45196 0.5
      vertex -0.975451 4.90393 0.5
      vertex -0.956708 2.3097 0.5
    endloop
  endfacet
  facet normal -0 0 1
    outer loop
      vertex -1.91342 4.6194 0.5
      vertex -0.956708 2.3097 0.5
      vertex -0.975451 4.90393 0.5
    endloop
  endfacet
  facet normal 0 0 1
    outer loop
      vertex -0.956708 2.3097 0.5
      vertex -1.91342 4.6194 0.5
      vertex -1.38893 2.07867 0.5
    endloop
  endfacet
  facet normal -0 0 1
    outer loop
      vertex -2.77785 4.15735 0.5
      vertex -1.38893 2.07867 0.5
      vertex -1.91342 4.6194 0.5
    endloop
  endfacet
  facet normal 0 0 1
    outer loop
      vertex -1.38893 2.07867 0.5
      vertex -2.77785 4.15735 0.5
      vertex -1.76777 1.76777 0.5
    endloop
  endfacet
  facet normal -0 0 1
    outer loop
      vertex -3.53553 3.53553 0.5
      vertex -1.76777 1.76777 0.5
      vertex -2.77785 4.15735 0.5
    endloop
  endfacet
  facet normal 0 0 1
    outer loop
      vertex -1.76777 1.76777 0.5
      vertex -3.53553 3.53553 0.5
      vertex -2.07867 1.38893 0.5
    endloop
  endfacet
  facet normal 0 0 1
    outer loop
      vertex -2.07867 1.38893 0.5
      vertex -4.15735 2.77785 0.5
      vertex -2.3097 0.956708 0.5
    endloop
  endfacet
  facet normal -0 0 1
    outer loop
      vertex -4.15735 2.77785 0.5
      vertex -2.07867 1.38893 0.5
      vertex -3.53553 3.53553 0.5
    endloop
  endfacet
  facet normal -0 0 1
    outer loop
      vertex 2.07867 -1.38893 0.5
      vertex 4.15735 -2.77785 0.5
      vertex 2.3097 -0.956708 0.5
    endloop
  endfacet
  facet normal 0 0 1
    outer loop
      vertex 4.15735 -2.77785 0.5
      vertex 2.07867 -1.38893 0.5
      vertex 3.53553 -3.53553 0.5
    endloop
  endfacet
  facet normal -0 0 1
    outer loop
      vertex 1.76777 -1.76777 0.5
      vertex 3.53553 -3.53553 0.5
      vertex 2.07867 -1.38893 0.5
    endloop
  endfacet
  facet normal 0 0 1
    outer loop
      vertex 3.53553 -3.53553 0.5
      vertex 1.76777 -1.76777 0.5
      vertex 2.77785 -4.15735 0.5
    endloop
  endfacet
  facet normal -0 0 1
    outer loop
      vertex 1.38893 -2.07867 0.5
      vertex 2.77785 -4.15735 0.5
      vertex 1.76777 -1.76777 0.5
    endloop
  endfacet
  facet normal 0 0 1
    outer loop
      vertex 2.77785 -4.15735 0.5
      vertex 1.38893 -2.07867 0.5
      vertex 1.91342 -4.6194 0.5
    endloop
  endfacet
  facet normal -0 0 1
    outer loop
      vertex 0.956708 -2.3097 0.5
      vertex 1.91342 -4.6194 0.5
      vertex 1.38893 -2.07867 0.5
    endloop
  endfacet
  facet normal 0 0 1
    outer loop
      vertex 1.91342 -4.6194 0.5
      vertex 0.956708 -2.3097 0.5
      vertex 0.975451 -4.90393 0.5
    endloop
  endfacet
  facet normal -0 0 1
    outer loop
      vertex 0.487725 -2.45196 0.5
      vertex 0.975451 -4.90393 0.5
      vertex 0.956708 -2.3097 0.5
    endloop
  endfacet
  facet normal -0 0 1
    outer loop
      vertex 0 -2.5 0.5
      vertex 0.975451 -4.90393 0.5
      vertex 0.487725 -2.45196 0.5
    endloop
  endfacet
  facet normal 0 0 1
    outer loop
      vertex 0 -2.5 0.5
      vertex 0 -5 0.5
      vertex 0.975451 -4.90393 0.5
    endloop
  endfacet
  facet normal 0 0 1
    outer loop
      vertex -0.487725 -2.45196 0.5
      vertex 0 -5 0.5
      vertex 0 -2.5 0.5
    endloop
  endfacet
  facet normal 0 0 1
    outer loop
      vertex -0.975451 -4.90393 0.5
      vertex -0.487725 -2.45196 0.5
      vertex -0.956708 -2.3097 0.5
    endloop
  endfacet
  facet normal 0 0 1
    outer loop
      vertex -0.487725 -2.45196 0.5
      vertex -0.975451 -4.90393 0.5
      vertex 0 -5 0.5
    endloop
  endfacet
  facet normal 0 0 1
    outer loop
      vertex -1.91342 -4.6194 0.5
      vertex -0.956708 -2.3097 0.5
      vertex -1.38893 -2.07867 0.5
    endloop
  endfacet
  facet normal 0 0 1
    outer loop
      vertex -2.77785 -4.15735 0.5
      vertex -1.38893 -2.07867 0.5
      vertex -1.76777 -1.76777 0.5
    endloop
  endfacet
  facet normal 0 0 1
    outer loop
      vertex -0.956708 -2.3097 0.5
      vertex -1.91342 -4.6194 0.5
      vertex -0.975451 -4.90393 0.5
    endloop
  endfacet
  facet normal 0 0 1
    outer loop
      vertex -3.53553 -3.53553 0.5
      vertex -1.76777 -1.76777 0.5
      vertex -2.07867 -1.38893 0.5
    endloop
  endfacet
  facet normal 0 0 1
    outer loop
      vertex -4.15735 -2.77785 0.5
      vertex -2.07867 -1.38893 0.5
      vertex -2.3097 -0.956708 0.5
    endloop
  endfacet
  facet normal 0 0 1
    outer loop
      vertex -4.6194 -1.91342 0.5
      vertex -2.3097 -0.956708 0.5
      vertex -2.45196 -0.487725 0.5
    endloop
  endfacet
  facet normal 0 0 1
    outer loop
      vertex -1.38893 -2.07867 0.5
      vertex -2.77785 -4.15735 0.5
      vertex -1.91342 -4.6194 0.5
    endloop
  endfacet
  facet normal 0 0 1
    outer loop
      vertex -4.90393 -0.975451 0.5
      vertex -2.45196 -0.487725 0.5
      vertex -2.5 0 0.5
    endloop
  endfacet
  facet normal -0 0 1
    outer loop
      vertex -4.6194 1.91342 0.5
      vertex -2.3097 0.956708 0.5
      vertex -4.15735 2.77785 0.5
    endloop
  endfacet
  facet normal 0 0 1
    outer loop
      vertex -2.3097 0.956708 0.5
      vertex -4.6194 1.91342 0.5
      vertex -2.45196 0.487725 0.5
    endloop
  endfacet
  facet normal 0 0 1
    outer loop
      vertex -1.76777 -1.76777 0.5
      vertex -3.53553 -3.53553 0.5
      vertex -2.77785 -4.15735 0.5
    endloop
  endfacet
  facet normal -0 0 1
    outer loop
      vertex -4.90393 0.975451 0.5
      vertex -2.45196 0.487725 0.5
      vertex -4.6194 1.91342 0.5
    endloop
  endfacet
  facet normal 0 0 1
    outer loop
      vertex -2.07867 -1.38893 0.5
      vertex -4.15735 -2.77785 0.5
      vertex -3.53553 -3.53553 0.5
    endloop
  endfacet
  facet normal 0 0 1
    outer loop
      vertex -2.45196 0.487725 0.5
      vertex -4.90393 0.975451 0.5
      vertex -2.5 0 0.5
    endloop
  endfacet
  facet normal 0 0 1
    outer loop
      vertex -2.3097 -0.956708 0.5
      vertex -4.6194 -1.91342 0.5
      vertex -4.15735 -2.77785 0.5
    endloop
  endfacet
  facet normal 0 0 1
    outer loop
      vertex -5 0 0.5
      vertex -2.5 0 0.5
      vertex -4.90393 0.975451 0.5
    endloop
  endfacet
  facet normal 0 0 1
    outer loop
      vertex -2.45196 -0.487725 0.5
      vertex -4.90393 -0.975451 0.5
      vertex -4.6194 -1.91342 0.5
    endloop
  endfacet
  facet normal 0 0 1
    outer loop
      vertex -2.5 0 0.5
      vertex -5 0 0.5
      vertex -4.90393 -0.975451 0.5
    endloop
  endfacet
  facet normal -0.471397 0.881921 0
    outer loop
      vertex -1.91342 4.6194 -0.5
      vertex -2.77785 4.15735 0.5
      vertex -1.91342 4.6194 0.5
    endloop
  endfacet
  facet normal -0.471397 0.881921 0
    outer loop
      vertex -2.77785 4.15735 0.5
      vertex -1.91342 4.6194 -0.5
      vertex -2.77785 4.15735 -0.5
    endloop
  endfacet
  facet normal -0.0980177 0.995185 0
    outer loop
      vertex 0 5 -0.5
      vertex -0.975451 4.90393 0.5
      vertex 0 5 0.5
    endloop
  endfacet
  facet normal -0.0980177 0.995185 0
    outer loop
      vertex -0.975451 4.90393 0.5
      vertex 0 5 -0.5
      vertex -0.975451 4.90393 -0.5
    endloop
  endfacet
  facet normal 0.995185 -0.0980177 0
    outer loop
      vertex 4.90393 -0.975451 0.5
      vertex 5 0 -0.5
      vertex 5 0 0.5
    endloop
  endfacet
  facet normal 0.995185 -0.0980177 0
    outer loop
      vertex 5 0 -0.5
      vertex 4.90393 -0.975451 0.5
      vertex 4.90393 -0.975451 -0.5
    endloop
  endfacet
  facet normal 0.0980177 -0.995185 0
    outer loop
      vertex 0 -5 -0.5
      vertex 0.975451 -4.90393 0.5
      vertex 0 -5 0.5
    endloop
  endfacet
  facet normal 0.0980177 -0.995185 0
    outer loop
      vertex 0.975451 -4.90393 0.5
      vertex 0 -5 -0.5
      vertex 0.975451 -4.90393 -0.5
    endloop
  endfacet
  facet normal 0.471397 -0.881921 0
    outer loop
      vertex 1.91342 -4.6194 -0.5
      vertex 2.77785 -4.15735 0.5
      vertex 1.91342 -4.6194 0.5
    endloop
  endfacet
  facet normal 0.471397 -0.881921 0
    outer loop
      vertex 2.77785 -4.15735 0.5
      vertex 1.91342 -4.6194 -0.5
      vertex 2.77785 -4.15735 -0.5
    endloop
  endfacet
  facet normal -0.634393 -0.773011 0
    outer loop
      vertex -3.53553 -3.53553 -0.5
      vertex -2.77785 -4.15735 0.5
      vertex -3.53553 -3.53553 0.5
    endloop
  endfacet
  facet normal -0.634393 -0.773011 -0
    outer loop
      vertex -2.77785 -4.15735 0.5
      vertex -3.53553 -3.53553 -0.5
      vertex -2.77785 -4.15735 -0.5
    endloop
  endfacet
  facet normal -0.290285 -0.95694 0
    outer loop
      vertex -1.91342 -4.6194 -0.5
      vertex -0.975451 -4.90393 0.5
      vertex -1.91342 -4.6194 0.5
    endloop
  endfacet
  facet normal -0.290285 -0.95694 -0
    outer loop
      vertex -0.975451 -4.90393 0.5
      vertex -1.91342 -4.6194 -0.5
      vertex -0.975451 -4.90393 -0.5
    endloop
  endfacet
  facet normal -0.881921 -0.471397 0
    outer loop
      vertex -4.15735 -2.77785 -0.5
      vertex -4.6194 -1.91342 0.5
      vertex -4.6194 -1.91342 -0.5
    endloop
  endfacet
  facet normal -0.881921 -0.471397 0
    outer loop
      vertex -4.6194 -1.91342 0.5
      vertex -4.15735 -2.77785 -0.5
      vertex -4.15735 -2.77785 0.5
    endloop
  endfacet
  facet normal -0.995185 -0.0980177 0
    outer loop
      vertex -4.90393 -0.975451 -0.5
      vertex -5 0 0.5
      vertex -5 0 -0.5
    endloop
  endfacet
  facet normal -0.995185 -0.0980177 0
    outer loop
      vertex -5 0 0.5
      vertex -4.90393 -0.975451 -0.5
      vertex -4.90393 -0.975451 0.5
    endloop
  endfacet
  facet normal 0.290285 -0.95694 0
    outer loop
      vertex 0.975451 -4.90393 -0.5
      vertex 1.91342 -4.6194 0.5
      vertex 0.975451 -4.90393 0.5
    endloop
  endfacet
  facet normal 0.290285 -0.95694 0
    outer loop
      vertex 1.91342 -4.6194 0.5
      vertex 0.975451 -4.90393 -0.5
      vertex 1.91342 -4.6194 -0.5
    endloop
  endfacet
  facet normal 0.881921 -0.471397 0
    outer loop
      vertex 4.15735 -2.77785 0.5
      vertex 4.6194 -1.91342 -0.5
      vertex 4.6194 -1.91342 0.5
    endloop
  endfacet
  facet normal 0.881921 -0.471397 0
    outer loop
      vertex 4.6194 -1.91342 -0.5
      vertex 4.15735 -2.77785 0.5
      vertex 4.15735 -2.77785 -0.5
    endloop
  endfacet
  facet normal 0.773011 -0.634393 0
    outer loop
      vertex 3.53553 -3.53553 0.5
      vertex 4.15735 -2.77785 -0.5
      vertex 4.15735 -2.77785 0.5
    endloop
  endfacet
  facet normal 0.773011 -0.634393 0
    outer loop
      vertex 4.15735 -2.77785 -0.5
      vertex 3.53553 -3.53553 0.5
      vertex 3.53553 -3.53553 -0.5
    endloop
  endfacet
  facet normal 0.95694 -0.290285 0
    outer loop
      vertex 4.6194 -1.91342 0.5
      vertex 4.90393 -0.975451 -0.5
      vertex 4.90393 -0.975451 0.5
    endloop
  endfacet
  facet normal 0.95694 -0.290285 0
    outer loop
      vertex 4.90393 -0.975451 -0.5
      vertex 4.6194 -1.91342 0.5
      vertex 4.6194 -1.91342 -0.5
    endloop
  endfacet
  facet normal -0.471397 -0.881921 0
    outer loop
      vertex -2.77785 -4.15735 -0.5
      vertex -1.91342 -4.6194 0.5
      vertex -2.77785 -4.15735 0.5
    endloop
  endfacet
  facet normal -0.471397 -0.881921 -0
    outer loop
      vertex -1.91342 -4.6194 0.5
      vertex -2.77785 -4.15735 -0.5
      vertex -1.91342 -4.6194 -0.5
    endloop
  endfacet
  facet normal -0.95694 -0.290285 0
    outer loop
      vertex -4.6194 -1.91342 -0.5
      vertex -4.90393 -0.975451 0.5
      vertex -4.90393 -0.975451 -0.5
    endloop
  endfacet
  facet normal -0.95694 -0.290285 0
    outer loop
      vertex -4.90393 -0.975451 0.5
      vertex -4.6194 -1.91342 -0.5
      vertex -4.6194 -1.91342 0.5
    endloop
  endfacet
  facet normal -0.995185 -0.0980187 0
    outer loop
      vertex 2.5 0 -0.5
      vertex 2.45196 0.487725 0.5
      vertex 2.45196 0.487725 -0.5
    endloop
  endfacet
  facet normal -0.995185 -0.0980187 0
    outer loop
      vertex 2.45196 0.487725 0.5
      vertex 2.5 0 -0.5
      vertex 2.5 0 0.5
    endloop
  endfacet
  facet normal 0.995185 -0.0980187 0
    outer loop
      vertex -2.5 0 0.5
      vertex -2.45196 0.487725 -0.5
      vertex -2.45196 0.487725 0.5
    endloop
  endfacet
  facet normal 0.995185 -0.0980187 0
    outer loop
      vertex -2.45196 0.487725 -0.5
      vertex -2.5 0 0.5
      vertex -2.5 0 -0.5
    endloop
  endfacet
  facet normal -0.0980187 -0.995185 0
    outer loop
      vertex 0 2.5 -0.5
      vertex 0.487725 2.45196 0.5
      vertex 0 2.5 0.5
    endloop
  endfacet
  facet normal -0.0980187 -0.995185 -0
    outer loop
      vertex 0.487725 2.45196 0.5
      vertex 0 2.5 -0.5
      vertex 0.487725 2.45196 -0.5
    endloop
  endfacet
  facet normal 0.0980187 0.995185 -0
    outer loop
      vertex 0 -2.5 -0.5
      vertex -0.487725 -2.45196 0.5
      vertex 0 -2.5 0.5
    endloop
  endfacet
  facet normal 0.0980187 0.995185 0
    outer loop
      vertex -0.487725 -2.45196 0.5
      vertex 0 -2.5 -0.5
      vertex -0.487725 -2.45196 -0.5
    endloop
  endfacet
  facet normal 0.773011 0.634392 0
    outer loop
      vertex -1.76777 -1.76777 0.5
      vertex -2.07867 -1.38893 -0.5
      vertex -2.07867 -1.38893 0.5
    endloop
  endfacet
  facet normal 0.773011 0.634392 0
    outer loop
      vertex -2.07867 -1.38893 -0.5
      vertex -1.76777 -1.76777 0.5
      vertex -1.76777 -1.76777 -0.5
    endloop
  endfacet
  facet normal -0.773011 -0.634392 0
    outer loop
      vertex 2.07867 1.38893 -0.5
      vertex 1.76777 1.76777 0.5
      vertex 1.76777 1.76777 -0.5
    endloop
  endfacet
  facet normal -0.773011 -0.634392 0
    outer loop
      vertex 1.76777 1.76777 0.5
      vertex 2.07867 1.38893 -0.5
      vertex 2.07867 1.38893 0.5
    endloop
  endfacet
  facet normal 0.634392 -0.773011 0
    outer loop
      vertex -1.76777 1.76777 -0.5
      vertex -1.38893 2.07867 0.5
      vertex -1.76777 1.76777 0.5
    endloop
  endfacet
  facet normal 0.634392 -0.773011 0
    outer loop
      vertex -1.38893 2.07867 0.5
      vertex -1.76777 1.76777 -0.5
      vertex -1.38893 2.07867 -0.5
    endloop
  endfacet
  facet normal 0.290285 -0.95694 0
    outer loop
      vertex -0.956708 2.3097 -0.5
      vertex -0.487725 2.45196 0.5
      vertex -0.956708 2.3097 0.5
    endloop
  endfacet
  facet normal 0.290285 -0.95694 0
    outer loop
      vertex -0.487725 2.45196 0.5
      vertex -0.956708 2.3097 -0.5
      vertex -0.487725 2.45196 -0.5
    endloop
  endfacet
  facet normal -0.634392 0.773011 0
    outer loop
      vertex 1.76777 -1.76777 -0.5
      vertex 1.38893 -2.07867 0.5
      vertex 1.76777 -1.76777 0.5
    endloop
  endfacet
  facet normal -0.634392 0.773011 0
    outer loop
      vertex 1.38893 -2.07867 0.5
      vertex 1.76777 -1.76777 -0.5
      vertex 1.38893 -2.07867 -0.5
    endloop
  endfacet
  facet normal -0.881922 -0.471396 0
    outer loop
      vertex 2.3097 0.956708 -0.5
      vertex 2.07867 1.38893 0.5
      vertex 2.07867 1.38893 -0.5
    endloop
  endfacet
  facet normal -0.881922 -0.471396 0
    outer loop
      vertex 2.07867 1.38893 0.5
      vertex 2.3097 0.956708 -0.5
      vertex 2.3097 0.956708 0.5
    endloop
  endfacet
  facet normal -0.95694 -0.290285 0
    outer loop
      vertex 2.45196 0.487725 -0.5
      vertex 2.3097 0.956708 0.5
      vertex 2.3097 0.956708 -0.5
    endloop
  endfacet
  facet normal -0.95694 -0.290285 0
    outer loop
      vertex 2.3097 0.956708 0.5
      vertex 2.45196 0.487725 -0.5
      vertex 2.45196 0.487725 0.5
    endloop
  endfacet
  facet normal -0.471396 -0.881922 0
    outer loop
      vertex 0.956708 2.3097 -0.5
      vertex 1.38893 2.07867 0.5
      vertex 0.956708 2.3097 0.5
    endloop
  endfacet
  facet normal -0.471396 -0.881922 -0
    outer loop
      vertex 1.38893 2.07867 0.5
      vertex 0.956708 2.3097 -0.5
      vertex 1.38893 2.07867 -0.5
    endloop
  endfacet
  facet normal -0.290285 -0.95694 0
    outer loop
      vertex 0.487725 2.45196 -0.5
      vertex 0.956708 2.3097 0.5
      vertex 0.487725 2.45196 0.5
    endloop
  endfacet
  facet normal -0.290285 -0.95694 -0
    outer loop
      vertex 0.956708 2.3097 0.5
      vertex 0.487725 2.45196 -0.5
      vertex 0.956708 2.3097 -0.5
    endloop
  endfacet
  facet normal -0.634392 -0.773011 0
    outer loop
      vertex 1.38893 2.07867 -0.5
      vertex 1.76777 1.76777 0.5
      vertex 1.38893 2.07867 0.5
    endloop
  endfacet
  facet normal -0.634392 -0.773011 -0
    outer loop
      vertex 1.76777 1.76777 0.5
      vertex 1.38893 2.07867 -0.5
      vertex 1.76777 1.76777 -0.5
    endloop
  endfacet
  facet normal 0.881922 -0.471396 0
    outer loop
      vertex -2.3097 0.956708 0.5
      vertex -2.07867 1.38893 -0.5
      vertex -2.07867 1.38893 0.5
    endloop
  endfacet
  facet normal 0.881922 -0.471396 0
    outer loop
      vertex -2.07867 1.38893 -0.5
      vertex -2.3097 0.956708 0.5
      vertex -2.3097 0.956708 -0.5
    endloop
  endfacet
  facet normal 0.773011 -0.634392 0
    outer loop
      vertex -2.07867 1.38893 0.5
      vertex -1.76777 1.76777 -0.5
      vertex -1.76777 1.76777 0.5
    endloop
  endfacet
  facet normal 0.773011 -0.634392 0
    outer loop
      vertex -1.76777 1.76777 -0.5
      vertex -2.07867 1.38893 0.5
      vertex -2.07867 1.38893 -0.5
    endloop
  endfacet
  facet normal 0.95694 -0.290285 0
    outer loop
      vertex -2.45196 0.487725 0.5
      vertex -2.3097 0.956708 -0.5
      vertex -2.3097 0.956708 0.5
    endloop
  endfacet
  facet normal 0.95694 -0.290285 0
    outer loop
      vertex -2.3097 0.956708 -0.5
      vertex -2.45196 0.487725 0.5
      vertex -2.45196 0.487725 -0.5
    endloop
  endfacet
  facet normal 0.471396 -0.881922 0
    outer loop
      vertex -1.38893 2.07867 -0.5
      vertex -0.956708 2.3097 0.5
      vertex -1.38893 2.07867 0.5
    endloop
  endfacet
  facet normal 0.471396 -0.881922 0
    outer loop
      vertex -0.956708 2.3097 0.5
      vertex -1.38893 2.07867 -0.5
      vertex -0.956708 2.3097 -0.5
    endloop
  endfacet
  facet normal 0.0980187 -0.995185 0
    outer loop
      vertex -0.487725 2.45196 -0.5
      vertex 0 2.5 0.5
      vertex -0.487725 2.45196 0.5
    endloop
  endfacet
  facet normal 0.0980187 -0.995185 0
    outer loop
      vertex 0 2.5 0.5
      vertex -0.487725 2.45196 -0.5
      vertex 0 2.5 -0.5
    endloop
  endfacet
  facet normal -0.995185 0.0980187 0
    outer loop
      vertex 2.45196 -0.487725 -0.5
      vertex 2.5 0 0.5
      vertex 2.5 0 -0.5
    endloop
  endfacet
  facet normal -0.995185 0.0980187 0
    outer loop
      vertex 2.5 0 0.5
      vertex 2.45196 -0.487725 -0.5
      vertex 2.45196 -0.487725 0.5
    endloop
  endfacet
  facet normal -0.0980187 0.995185 0
    outer loop
      vertex 0.487725 -2.45196 -0.5
      vertex 0 -2.5 0.5
      vertex 0.487725 -2.45196 0.5
    endloop
  endfacet
  facet normal -0.0980187 0.995185 0
    outer loop
      vertex 0 -2.5 0.5
      vertex 0.487725 -2.45196 -0.5
      vertex 0 -2.5 -0.5
    endloop
  endfacet
  facet normal -0.471396 0.881922 0
    outer loop
      vertex 1.38893 -2.07867 -0.5
      vertex 0.956708 -2.3097 0.5
      vertex 1.38893 -2.07867 0.5
    endloop
  endfacet
  facet normal -0.471396 0.881922 0
    outer loop
      vertex 0.956708 -2.3097 0.5
      vertex 1.38893 -2.07867 -0.5
      vertex 0.956708 -2.3097 -0.5
    endloop
  endfacet
  facet normal 0.634392 0.773011 -0
    outer loop
      vertex -1.38893 -2.07867 -0.5
      vertex -1.76777 -1.76777 0.5
      vertex -1.38893 -2.07867 0.5
    endloop
  endfacet
  facet normal 0.634392 0.773011 0
    outer loop
      vertex -1.76777 -1.76777 0.5
      vertex -1.38893 -2.07867 -0.5
      vertex -1.76777 -1.76777 -0.5
    endloop
  endfacet
  facet normal 0.290285 0.95694 -0
    outer loop
      vertex -0.487725 -2.45196 -0.5
      vertex -0.956708 -2.3097 0.5
      vertex -0.487725 -2.45196 0.5
    endloop
  endfacet
  facet normal 0.290285 0.95694 0
    outer loop
      vertex -0.956708 -2.3097 0.5
      vertex -0.487725 -2.45196 -0.5
      vertex -0.956708 -2.3097 -0.5
    endloop
  endfacet
  facet normal 0.881922 0.471396 0
    outer loop
      vertex -2.07867 -1.38893 0.5
      vertex -2.3097 -0.956708 -0.5
      vertex -2.3097 -0.956708 0.5
    endloop
  endfacet
  facet normal 0.881922 0.471396 0
    outer loop
      vertex -2.3097 -0.956708 -0.5
      vertex -2.07867 -1.38893 0.5
      vertex -2.07867 -1.38893 -0.5
    endloop
  endfacet
  facet normal 0.995185 0.0980187 0
    outer loop
      vertex -2.45196 -0.487725 0.5
      vertex -2.5 0 -0.5
      vertex -2.5 0 0.5
    endloop
  endfacet
  facet normal 0.995185 0.0980187 0
    outer loop
      vertex -2.5 0 -0.5
      vertex -2.45196 -0.487725 0.5
      vertex -2.45196 -0.487725 -0.5
    endloop
  endfacet
  facet normal -0.290285 0.95694 0
    outer loop
      vertex 0.956708 -2.3097 -0.5
      vertex 0.487725 -2.45196 0.5
      vertex 0.956708 -2.3097 0.5
    endloop
  endfacet
  facet normal -0.290285 0.95694 0
    outer loop
      vertex 0.487725 -2.45196 0.5
      vertex 0.956708 -2.3097 -0.5
      vertex 0.487725 -2.45196 -0.5
    endloop
  endfacet
  facet normal -0.881922 0.471396 0
    outer loop
      vertex 2.07867 -1.38893 -0.5
      vertex 2.3097 -0.956708 0.5
      vertex 2.3097 -0.956708 -0.5
    endloop
  endfacet
  facet normal -0.881922 0.471396 0
    outer loop
      vertex 2.3097 -0.956708 0.5
      vertex 2.07867 -1.38893 -0.5
      vertex 2.07867 -1.38893 0.5
    endloop
  endfacet
  facet normal -0.773011 0.634392 0
    outer loop
      vertex 1.76777 -1.76777 -0.5
      vertex 2.07867 -1.38893 0.5
      vertex 2.07867 -1.38893 -0.5
    endloop
  endfacet
  facet normal -0.773011 0.634392 0
    outer loop
      vertex 2.07867 -1.38893 0.5
      vertex 1.76777 -1.76777 -0.5
      vertex 1.76777 -1.76777 0.5
    endloop
  endfacet
  facet normal -0.95694 0.290285 0
    outer loop
      vertex 2.3097 -0.956708 -0.5
      vertex 2.45196 -0.487725 0.5
      vertex 2.45196 -0.487725 -0.5
    endloop
  endfacet
  facet normal -0.95694 0.290285 0
    outer loop
      vertex 2.45196 -0.487725 0.5
      vertex 2.3097 -0.956708 -0.5
      vertex 2.3097 -0.956708 0.5
    endloop
  endfacet
  facet normal 0.471396 0.881922 -0
    outer loop
      vertex -0.956708 -2.3097 -0.5
      vertex -1.38893 -2.07867 0.5
      vertex -0.956708 -2.3097 0.5
    endloop
  endfacet
  facet normal 0.471396 0.881922 0
    outer loop
      vertex -1.38893 -2.07867 0.5
      vertex -0.956708 -2.3097 -0.5
      vertex -1.38893 -2.07867 -0.5
    endloop
  endfacet
  facet normal 0.95694 0.290285 0
    outer loop
      vertex -2.3097 -0.956708 0.5
      vertex -2.45196 -0.487725 -0.5
      vertex -2.45196 -0.487725 0.5
    endloop
  endfacet
  facet normal 0.95694 0.290285 0
    outer loop
      vertex -2.45196 -0.487725 -0.5
      vertex -2.3097 -0.956708 0.5
      vertex -2.3097 -0.956708 -0.5
    endloop
  endfacet
endsolid OpenSCAD_Model
